<?xml version="1.0" encoding="UTF-8"?>
<svg version="1.1" xmlns="http://www.w3.org/2000/svg" width="1000" height="1000">
<path d="M0 0 C35.7045274 11.69499603 35.7045274 11.69499603 51 18 C52.04800781 18.42539062 53.09601563 18.85078125 54.17578125 19.2890625 C57.12827846 20.50134612 60.0644602 21.74725371 63 23 C64.32420179 23.55082202 65.64842173 24.10160042 66.97265625 24.65234375 C73.56030323 27.42391025 79.73605618 30.16096082 85.55859375 34.359375 C88.13503026 36.09074033 90.77892677 37.54583099 93.50927734 39.01635742 C102.39195385 43.81258025 110.34684506 49.41592934 118.27539062 55.64990234 C119.74730607 56.80218043 121.23893556 57.92920167 122.734375 59.05078125 C128.77445335 63.65979529 134.06177817 68.91063156 139.35595703 74.34130859 C140.21616455 75.22230225 140.21616455 75.22230225 141.09375 76.12109375 C141.60615234 76.6514624 142.11855469 77.18183105 142.64648438 77.72827148 C143.9947419 79.11675986 143.9947419 79.11675986 146 80 C146 80.66 146 81.32 146 82 C146.66 82 147.32 82 148 82 C148 82.66 148 83.32 148 84 C148.66 84 149.32 84 150 84 C169.00982463 104.01645485 183.91651803 135.20124946 187.5078125 162.5390625 C187.88583172 165.24122653 187.88583172 165.24122653 190 168 C190.16015625 170.41015625 190.16015625 170.41015625 190.0625 173.0625 C189.85788259 176.67289795 189.85788259 176.67289795 191 180 C191.02882938 182.66896378 190.99672229 185.30666017 190.9140625 187.97265625 C190.89282318 188.76973495 190.87158386 189.56681366 190.84970093 190.38804626 C190.80337793 192.08030202 190.75444485 193.77248802 190.703125 195.46459961 C190.62604672 198.02769334 190.55844167 200.59090314 190.4921875 203.15429688 C190.44588463 204.80209951 190.39902652 206.44988665 190.3515625 208.09765625 C190.33171295 208.85426041 190.3118634 209.61086456 190.29141235 210.39039612 C190.03556953 218.49013982 189.09453514 226.2983549 187.25 234.1875 C186.88920855 235.76039044 186.52853707 237.3333084 186.16796875 238.90625 C185.9776709 239.72996094 185.78737305 240.55367187 185.59130859 241.40234375 C184.97539204 244.10810433 184.38576971 246.81864384 183.80078125 249.53125 C181.70866459 259.14268984 179.39289148 268.47222972 176.1171875 277.75 C175.09888841 280.71232461 174.267389 283.65243337 173.5 286.6875 C171.92420178 292.71155147 169.47426941 298.30019786 167 304 C165.47736189 307.39392443 165.47736189 307.39392443 165 311 C164.34 311 163.68 311 163 311 C162.67 312.155 162.34 313.31 162 314.5 C157.98205016 326.55384951 151.10244339 337.90892679 145 349 C144.63261719 349.67417969 144.26523437 350.34835937 143.88671875 351.04296875 C141.60354045 355.14893138 139.02247291 359.02623639 136.38671875 362.91015625 C135.27500791 364.58555145 134.24757862 366.31673742 133.25 368.0625 C132.8375 368.701875 132.425 369.34125 132 370 C131.34 370 130.68 370 130 370 C129.72309326 370.58483154 129.44618652 371.16966309 129.16088867 371.7722168 C127.27066657 375.39961463 124.76311674 378.5480253 122.3125 381.8125 C121.55549805 382.84213867 121.55549805 382.84213867 120.78320312 383.89257812 C117.63424175 388.10048227 114.30245333 391.85365753 110.48632812 395.46972656 C108.58761635 397.42457633 107.35380657 399.64865174 106 402 C105.34 402 104.68 402 104 402 C103.7834375 402.54140625 103.566875 403.0828125 103.34375 403.640625 C101.53415625 406.81793495 99.08736529 409.20861439 96.5 411.75 C95.69477905 412.54724487 95.69477905 412.54724487 94.87329102 413.3605957 C90.94843534 417.19373016 86.85786735 420.70625047 82.51171875 424.05859375 C79.70469705 426.22825127 76.97992984 428.48426876 74.25 430.75 C70.61131492 433.73311193 66.95496773 436.44575001 63 439 C61.3298362 440.22441062 59.66365845 441.45426481 58 442.6875 C44.17128782 452.77719897 29.58017451 460.95417594 14.06689453 468.15942383 C12.13164143 469.05941141 10.20049965 469.96781538 8.26953125 470.87695312 C-3.49129867 476.38227546 -15.36439388 481.02678185 -27.875 484.5625 C-28.92018799 484.8613208 -29.96537598 485.1601416 -31.04223633 485.46801758 C-33.10586034 486.05577779 -35.1703632 486.64046339 -37.23583984 487.22167969 C-39.5413908 487.8708668 -41.84335863 488.53085254 -44.14453125 489.1953125 C-54.64015651 492.13455045 -65.27134929 494.13561311 -76 496 C-77.00546875 496.18095215 -78.0109375 496.3619043 -79.046875 496.54833984 C-94.4282907 499.27691499 -109.52065444 500.51196469 -125.11035156 500.76049805 C-126.13122108 500.77747742 -126.13122108 500.77747742 -127.17271423 500.7947998 C-129.02106361 500.82237665 -130.86954585 500.84060032 -132.71801758 500.8581543 C-135.91401601 500.91936184 -135.91401601 500.91936184 -138.67034912 501.49702454 C-142.64274432 502.09709265 -146.54926351 502.16798233 -150.55639648 502.18945312 C-151.39458923 502.19774643 -152.23278198 502.20603973 -153.09637451 502.21458435 C-154.90838726 502.23191957 -156.72042162 502.2471039 -158.5324688 502.26036072 C-161.40395124 502.2814918 -164.2753259 502.30850621 -167.14674377 502.33703613 C-173.24362057 502.39657264 -179.34054822 502.44880239 -185.4375 502.5 C-192.50160249 502.55935637 -199.5656515 502.62173822 -206.62965584 502.69187927 C-209.4518522 502.71833527 -212.2740544 502.73922055 -215.09629822 502.7598877 C-216.83560444 502.77650094 -218.5749082 502.79337367 -220.31420898 502.81054688 C-221.09313004 502.81473129 -221.87205109 502.81891571 -222.67457581 502.82322693 C-223.4075589 502.83157059 -224.14054199 502.83991425 -224.89573669 502.84851074 C-225.52305915 502.85366447 -226.1503816 502.85881821 -226.79671383 502.86412811 C-229.88189173 503.05438435 -232.94002782 503.56286112 -236 504 C-293.42 504 -350.84 504 -410 504 C-410 365.4 -410 226.8 -410 84 C-386 84 -386 84 -378 87 C-376.93136719 87.38800781 -375.86273438 87.77601563 -374.76171875 88.17578125 C-352.18079111 96.52527292 -332.34511699 111.68926559 -318 131 C-317.31421875 131.91523437 -316.6284375 132.83046875 -315.921875 133.7734375 C-306 147.18634259 -306 147.18634259 -306 152 C-316.56 152 -327.12 152 -338 152 C-338 171.14 -338 190.28 -338 210 C-318.2 210 -298.4 210 -278 210 C-275.525 218.415 -275.525 218.415 -273 227 C-272.45214844 228.83175781 -271.90429688 230.66351562 -271.33984375 232.55078125 C-270.8719936 234.13790232 -270.40452806 235.72513683 -269.9375 237.3125 C-269.59235352 238.44848633 -269.59235352 238.44848633 -269.24023438 239.60742188 C-266.4999663 248.99940917 -264.94245135 258.28774326 -263 268 C-287.75 268 -312.5 268 -338 268 C-337.67 296.71 -337.34 325.42 -337 355 C-305.76757939 355.02911694 -305.76757939 355.02911694 -274.53515625 355.04882812 C-261.80549722 355.0547703 -249.07584479 355.0617697 -236.34619141 355.07543945 C-227.07678659 355.08538869 -217.80738711 355.091854 -208.5379771 355.09408849 C-203.62729219 355.09539519 -198.71662256 355.09847848 -193.80594254 355.10573006 C-189.18824578 355.11249404 -184.57057065 355.11461618 -179.95286942 355.11310768 C-178.2540729 355.11338384 -176.5552757 355.11538673 -174.85648346 355.11920547 C-172.54501188 355.12414861 -170.23362298 355.12299597 -167.92214966 355.12025452 C-166.62610872 355.12117631 -165.33006779 355.1220981 -163.99475288 355.12304783 C-161.07444426 355.20810443 -161.07444426 355.20810443 -159 354 C-156.12650892 353.86651952 -153.2734874 353.78979114 -150.3984375 353.75390625 C-148.60937139 353.72089822 -146.820309 353.68768804 -145.03125 353.65429688 C-142.22561956 353.60742303 -139.41999562 353.56314063 -136.61425781 353.52319336 C-95.25824978 352.90588434 -53.97729718 343.21591423 -21 317 C-19.76898771 316.07018224 -18.53582926 315.14320051 -17.30078125 314.21875 C-10.84032314 309.33839095 -4.97992241 304.42782937 0 298 C0.88158418 296.90265789 1.7645202 295.80640114 2.6484375 294.7109375 C22.0556189 270.5143316 34.66181051 244.06703536 42 214 C42.31066406 212.76507812 42.62132812 211.53015625 42.94140625 210.2578125 C44.3489971 204.47785009 45.38080801 198.86491205 45.7890625 192.92578125 C46 191 46 191 47 189 C47.1400516 187.45401801 47.22556031 185.90287595 47.28125 184.3515625 C47.31863281 183.42859375 47.35601563 182.505625 47.39453125 181.5546875 C47.44673828 180.10449219 47.44673828 180.10449219 47.5 178.625 C47.5690891 176.72121141 47.6418681 174.81755231 47.71875 172.9140625 C47.74904297 172.0679541 47.77933594 171.2218457 47.81054688 170.35009766 C48 168 48 168 48.50927734 165.98193359 C49.06940714 163.71967805 49.12949302 161.70432318 49.1328125 159.375 C49.13474609 158.06789063 49.13474609 158.06789063 49.13671875 156.734375 C49.13285156 155.83203125 49.12898438 154.9296875 49.125 154 C49.12886719 153.09765625 49.13273437 152.1953125 49.13671875 151.265625 C49.13542969 150.39421875 49.13414062 149.5228125 49.1328125 148.625 C49.13168457 147.83351563 49.13055664 147.04203125 49.12939453 146.2265625 C49.07249224 144.02932757 49.07249224 144.02932757 48.50927734 142.07275391 C47.86003556 139.43034608 47.80001099 136.93015494 47.71875 134.2109375 C47.68136719 133.10492187 47.64398437 131.99890625 47.60546875 130.859375 C47.53491999 128.52865297 47.46460907 126.19792373 47.39453125 123.8671875 C47.35714844 122.76375 47.31976562 121.6603125 47.28125 120.5234375 C47.25095703 119.51200684 47.22066406 118.50057617 47.18945312 117.45849609 C47.15515487 114.99600116 47.15515487 114.99600116 46 113 C45.676557 111.10932866 45.39135818 109.21205437 45.125 107.3125 C40.24865754 75.01556516 29.42283159 43.57861165 10 17 C9.09221009 15.47741057 8.21067287 13.93833361 7.375 12.375 C6.96378906 11.61960937 6.55257813 10.86421875 6.12890625 10.0859375 C5.75636719 9.39757812 5.38382813 8.70921875 5 8 C3.13647726 4.31756654 3.13647726 4.31756654 0 2 C0 1.34 0 0.68 0 0 Z M188 168 C188 169.65 188 171.3 188 173 C188.33 173 188.66 173 189 173 C189 171.35 189 169.7 189 168 C188.67 168 188.34 168 188 168 Z " fill="#FEFEFE" transform="translate(610,416)"/>
<path d="M0 0 C52.30790453 -0.0228691 104.61580856 -0.04049962 156.9237171 -0.05106533 C163.09359461 -0.0523161 169.26347211 -0.05361041 175.43334961 -0.05493164 C177.27588322 -0.05532511 177.27588322 -0.05532511 179.15563973 -0.05572652 C199.06728278 -0.06008253 218.97892296 -0.06796969 238.8905643 -0.0771528 C259.30877267 -0.08649126 279.72697953 -0.09205602 300.14518994 -0.09408849 C312.75295577 -0.09546332 325.36071347 -0.09981174 337.96847679 -0.10791647 C346.60407879 -0.1131863 355.23967657 -0.11480375 363.87528006 -0.11350138 C368.8638887 -0.11285837 373.85248311 -0.11387132 378.84108925 -0.11920547 C383.40254628 -0.1240475 387.9639794 -0.1243333 392.5254375 -0.12089889 C394.18093128 -0.120474 395.83642651 -0.12176297 397.49191741 -0.12488318 C399.73201376 -0.1288618 401.97202236 -0.12675414 404.2121172 -0.12304783 C405.45949848 -0.12342755 406.70687976 -0.12380727 407.99206048 -0.1241985 C411 0 411 0 414 1 C416.20959253 1.15109093 418.42300047 1.24873801 420.63671875 1.31640625 C421.93544922 1.35830078 423.23417969 1.40019531 424.57226562 1.44335938 C425.94400761 1.48316987 427.31575244 1.52288216 428.6875 1.5625 C430.07097645 1.60570835 431.45444027 1.64932339 432.83789062 1.69335938 C436.22515719 1.79958028 439.61249799 1.90162358 443 2 C443 2.66 443 3.32 443 4 C444.14339844 3.98839844 445.28679687 3.97679687 446.46484375 3.96484375 C447.95572754 3.95546712 449.44661309 3.94636679 450.9375 3.9375 C452.06961914 3.92493164 452.06961914 3.92493164 453.22460938 3.91210938 C455.14994313 3.90347559 457.07535581 3.94775667 459 4 C459.33 4.33 459.66 4.66 460 5 C461.41279706 5.16301505 462.83108128 5.2788797 464.25 5.375 C469.48803554 5.85050961 474.43516864 6.94815005 479.5390625 8.19140625 C483.03341122 9.00780601 486.53319259 9.6655879 490.0625 10.3125 C523.27433347 16.98181342 556.56169667 30.73574484 585 49 C586.58069152 49.9212147 588.16395891 50.83802637 589.75 51.75 C602.13918069 59.19155334 613.57064414 67.91772497 624.34057617 77.52929688 C625.49340726 78.55102036 626.65578815 79.56202895 627.82543945 80.56445312 C633.48355319 85.42621874 638.78688585 90.60336145 644.0625 95.875 C645.35124023 97.14537109 645.35124023 97.14537109 646.66601562 98.44140625 C651.90820481 103.67158125 656.58506091 109.06086428 661 115 C661.82453483 116.05619797 662.65229038 117.10989579 663.484375 118.16015625 C670.020733 126.53345624 676.12095039 135.15365392 682 144 C682.4228125 144.63244629 682.845625 145.26489258 683.28125 145.91650391 C706.81066199 181.38525425 719.61942311 223.09647057 729.87841797 264.05224609 C730.07502014 264.83126785 730.27162231 265.61028961 730.47418213 266.41291809 C730.84021317 267.8690829 731.20086972 269.32661349 731.55511475 270.78569031 C732.36257982 274.00823789 733.13303132 276.19954698 735 279 C731.69050485 277.56588544 729.60335115 275.79026636 727.125 273.1875 C724.79213645 270.78564234 722.53857376 268.62332552 719.9375 266.5 C716.79333481 263.82411473 714.24716112 260.93624199 711.61328125 257.76953125 C709.92720578 255.77730559 709.92720578 255.77730559 707 254 C707 253.34 707 252.68 707 252 C706.44957031 251.77828125 705.89914062 251.5565625 705.33203125 251.328125 C702.24976548 249.57273076 700.14972775 247.29929379 697.6875 244.75 C690.70936573 237.48392153 690.70936573 237.48392153 682.6015625 231.59375 C679.89306211 229.9344885 677.64944123 228.07849686 675.25 226 C662.01138413 215.10278827 647.10420581 207.07212441 631.82421875 199.41699219 C630.04130534 198.52245299 628.26210549 197.62043762 626.48828125 196.70800781 C601.07150749 183.63682033 573.50799347 174.51799027 546 167 C544.63540993 166.61330501 543.27082567 166.22658956 541.90625 165.83984375 C520.53310653 160.10161936 498.20527843 156.88447677 476.37646484 153.38183594 C474.33988284 153.05461031 472.30457047 152.71949962 470.26953125 152.3828125 C457.00313002 150.2404123 443.67560365 148.91020665 430.2578125 148.24609375 C427 148 427 148 425.18823242 147.50219727 C422.34983587 146.85078795 419.64138405 146.79836767 416.73046875 146.71875 C414.90225586 146.66267578 414.90225586 146.66267578 413.03710938 146.60546875 C411.76673828 146.57066406 410.49636719 146.53585937 409.1875 146.5 C406.68088718 146.43069273 404.17436832 146.35788214 401.66796875 146.28125 C400.55703857 146.25095703 399.4461084 146.22066406 398.30151367 146.18945312 C395 146 395 146 391.69882202 145.49624634 C388.24914473 145.03342609 384.99393987 144.87315346 381.51733398 144.87060547 C380.27592148 144.86745331 379.03450897 144.86430115 377.75547791 144.86105347 C376.41901615 144.8628434 375.08255473 144.86489439 373.74609375 144.8671875 C372.35799645 144.8665128 370.96989927 144.86554139 369.58180237 144.86428833 C366.68285998 144.86281968 363.78394854 144.86493939 360.88500977 144.86962891 C357.18086253 144.87533104 353.47678769 144.87203884 349.77264309 144.86605644 C346.90980998 144.86243287 344.04699387 144.86359757 341.18416023 144.86618423 C339.81869562 144.86684826 338.45322942 144.86604354 337.08776665 144.86370468 C335.17626859 144.86114802 333.26476506 144.8657395 331.35327148 144.87060547 C330.26852036 144.87140106 329.18376923 144.87219666 328.06614685 144.87301636 C325.04927967 144.92619848 325.04927967 144.92619848 322.32029724 145.49327087 C317.39525632 146.24490891 312.49759859 146.19601569 307.52197266 146.23706055 C305.79892159 146.25672882 305.79892159 146.25672882 304.0410614 146.27679443 C300.24876203 146.31852853 296.45644179 146.35307998 292.6640625 146.38671875 C290.0237924 146.41238459 287.38352345 146.43816854 284.74325562 146.46406555 C279.21037747 146.51739303 273.67746981 146.56596227 268.14453125 146.61254883 C261.76312033 146.66641659 255.38189099 146.73153812 249.00064242 146.80188721 C242.84551203 146.86916844 236.69032691 146.92496184 230.53504562 146.976511 C227.92358569 146.99988561 225.31215363 147.02663009 222.7007637 147.05682945 C219.04612252 147.09808162 215.39160056 147.12620635 211.73681641 147.15112305 C210.12499229 147.17357841 210.12499229 147.17357841 208.48060608 147.19648743 C202.5979689 147.22122088 197.64522378 146.65359432 192 145 C189.44859859 144.73982084 189.44859859 144.73982084 187.1015625 144.796875 C153.98266347 144.52635536 119.5109235 133.52430442 92 115 C90.18908556 113.8724495 88.37655318 112.74749379 86.5625 111.625 C77.1927348 105.64061227 68.65586086 98.90911112 60.5234375 91.3359375 C58.35197111 89.32581845 56.1378521 87.40508892 53.875 85.5 C34.26263327 68.40408766 19.86889992 45.37251686 8.625 22.1875 C8.11291992 21.13804199 7.60083984 20.08858398 7.07324219 19.00732422 C6.58758789 17.98783691 6.10193359 16.96834961 5.6015625 15.91796875 C5.17182129 15.01844482 4.74208008 14.1189209 4.29931641 13.19213867 C3.16491957 10.40517162 2.270384 7.68185409 1.41879272 4.80049133 C1.15207952 3.9011704 0.88536633 3.00184946 0.61057091 2.07527637 C0.40908251 1.39043517 0.20759411 0.70559397 0 0 Z " fill="#FEFEFE" transform="translate(69,218)"/>
<path d="M0 0 C0.66 0 1.32 0 2 0 C4.00684749 3.01027124 4.583129 4.90008374 5.375 8.375 C6.37651334 12.54962489 7.46512175 16.65376422 8.75 20.75 C11.62950307 29.94267773 14.28420569 39.20053644 16.96875 48.45166016 C17.88290036 51.59708187 18.80004601 54.74160143 19.71879578 57.88568115 C20.51431774 60.6088038 21.30835613 63.33235796 22.10220337 66.05596924 C22.66823168 67.9964438 23.23582179 69.93646259 23.8034668 71.87646484 C24.16093994 73.10445801 24.51841309 74.33245117 24.88671875 75.59765625 C25.23911621 76.80566895 25.59151367 78.01368164 25.95458984 79.25830078 C26.68681913 81.87907285 27.37612201 84.48626927 28.01806641 87.12841797 C28.18643509 87.80698349 28.35480377 88.48554901 28.52827454 89.18467712 C28.99198435 91.0715058 29.43950339 92.96229231 29.88598633 94.85327148 C31.76009177 100.14701354 34.9921728 102.2254446 39.92114258 104.63623047 C40.56591553 104.94189941 41.21068848 105.24756836 41.875 105.5625 C43.31398637 106.26394499 44.75277761 106.96579036 46.19140625 107.66796875 C46.96500488 108.04228027 47.73860352 108.4165918 48.53564453 108.80224609 C68.00559418 118.26525114 87.30259711 128.0804727 106 139 C104.6562501 143.0312497 102.20928476 143.80551754 98.625 145.625 C97.96161621 145.97054932 97.29823242 146.31609863 96.61474609 146.67211914 C90.5492511 149.79729856 84.37435669 152.68810119 78.19189453 155.57275391 C72.16724317 158.39956625 66.29156671 161.44287817 60.44311523 164.6159668 C56.63095969 166.66591216 52.79133624 168.5879376 48.85546875 170.390625 C47.994375 170.78572266 47.13328125 171.18082031 46.24609375 171.58789062 C44.58339262 172.34308694 42.91561435 173.08723758 41.2421875 173.81835938 C36.04064234 176.1798786 32.48964245 178.30100569 30.25415039 183.85205078 C29.48724846 186.11352953 28.82712929 188.38679843 28.1875 190.6875 C27.93669678 191.5539917 27.68589355 192.4204834 27.42749023 193.31323242 C25.06528199 201.55519834 22.88060712 209.84705799 20.6809082 218.13354492 C18.46580732 226.42449031 16.0385246 234.63347799 13.49780273 242.82983398 C11.35939333 249.74449135 9.37445389 256.69029104 7.50927734 263.68359375 C6.1021625 268.8978375 6.1021625 268.8978375 5 270 C4.896875 271.11375 4.79375 272.2275 4.6875 273.375 C4 277 4 277 1.9375 278.9375 C1.298125 279.288125 0.65875 279.63875 0 280 C-0.103125 278.824375 -0.20625 277.64875 -0.3125 276.4375 C-0.82990204 272.23176056 -2.27017495 268.87480812 -4 265 C-4.48107608 263.14081951 -4.95790329 261.28038873 -5.40844727 259.41357422 C-6.60651836 254.52536502 -7.94180902 249.67216195 -9.25 244.8125 C-9.55574951 243.67643311 -9.86149902 242.54036621 -10.17651367 241.36987305 C-12.82206662 231.58153227 -15.57708648 221.82697019 -18.3972168 212.08764648 C-18.92927708 210.24493789 -19.45352143 208.39997641 -19.9765625 206.5546875 C-21.55835426 201.06067795 -23.22214219 195.591525 -24.87695312 190.11914062 C-25.13541016 189.26126953 -25.39386719 188.40339844 -25.66015625 187.51953125 C-25.89355713 186.74714111 -26.12695801 185.97475098 -26.36743164 185.17895508 C-27 183 -27 183 -27.20874023 180.8425293 C-27.46985596 180.23449463 -27.73097168 179.62645996 -28 179 C-30.64611929 177.92399324 -30.64611929 177.92399324 -34 177 C-36.97306204 175.66858486 -39.86772484 174.18268699 -42.7734375 172.7109375 C-43.61484283 172.28881989 -44.45624817 171.86670227 -45.32315063 171.43179321 C-48.00901204 170.08329301 -50.69204867 168.72927923 -53.375 167.375 C-55.13913554 166.48790851 -56.9034569 165.60118647 -58.66796875 164.71484375 C-62.12952462 162.97565226 -65.58961502 161.233592 -69.04882812 159.48974609 C-72.24615669 157.87932578 -75.44757238 156.27766214 -78.65429688 154.68603516 C-79.37871979 154.32603424 -80.1031427 153.96603333 -80.84951782 153.59512329 C-82.18391741 152.93270997 -83.5191153 152.27190095 -84.85531616 151.61312866 C-89.37385353 149.36846346 -93.7089913 146.90241453 -97.984375 144.2265625 C-99.94484085 143.03356584 -101.93359749 141.99596878 -104 141 C-103 138 -103 138 -100.09733582 136.30186462 C-98.78885059 135.66481747 -97.47489632 135.03893598 -96.15698242 134.42163086 C-95.44149734 134.0763736 -94.72601227 133.73111633 -93.98884583 133.37539673 C-92.43188805 132.62488091 -90.87285159 131.87866592 -89.3120327 131.1362133 C-86.83885012 129.95691945 -84.37405022 128.7616562 -81.91120911 127.56092834 C-74.90735045 124.14760775 -67.8968577 120.74891316 -60.86303711 117.39770508 C-56.56216039 115.34714508 -52.27772056 113.26524609 -48.00203896 111.16269112 C-46.37277888 110.36905583 -44.7376988 109.58725061 -43.09685326 108.81785393 C-32.72323444 104.37471317 -32.72323444 104.37471317 -26.07080078 95.8034668 C-25.39520041 93.32915009 -25.39520041 93.32915009 -25 91 C-24.67475342 89.96343262 -24.34950684 88.92686523 -24.0144043 87.85888672 C-23.78664307 86.97475098 -23.55888184 86.09061523 -23.32421875 85.1796875 C-23.05754395 84.16310059 -22.79086914 83.14651367 -22.51611328 82.09912109 C-22.2426709 81.03516113 -21.96922852 79.97120117 -21.6875 78.875 C-19.18891203 69.3771365 -16.56349658 59.93274976 -13.77954102 50.51489258 C-12.00585797 44.49468407 -10.27983155 38.46317789 -8.59375 32.41796875 C-8.38881927 31.68406921 -8.18388855 30.95016968 -7.9727478 30.19403076 C-6.95473248 26.54577906 -5.94089814 22.8964242 -4.93212891 19.24560547 C-4.56163817 17.91500711 -4.19103808 16.5844392 -3.8203125 15.25390625 C-3.49305176 14.07127197 -3.16579102 12.8886377 -2.82861328 11.67016602 C-2 9 -2 9 -1 8 C-0.76924918 6.65252916 -0.58846937 5.29622435 -0.4375 3.9375 C-0.293125 2.638125 -0.14875 1.33875 0 0 Z " fill="#FEFEFE" transform="translate(802,78)"/>
<path d="M0 0 C1.32963842 3.98891525 0.38405007 7.18462836 -0.4375 11.1875 C-0.65889648 12.31188477 -0.65889648 12.31188477 -0.88476562 13.45898438 C-1.24972791 15.30734174 -1.62397411 17.15386161 -2 19 C-2.66 19 -3.32 19 -4 19 C-3.7525 19.86625 -3.505 20.7325 -3.25 21.625 C-2.92677088 25.98859312 -4.35542117 27.6341724 -7 31 C-8.13283456 27.60149633 -7.84869214 26.69702559 -6.85546875 23.359375 C-6.59056641 22.45316406 -6.32566406 21.54695312 -6.05273438 20.61328125 C-5.76720703 19.66839844 -5.48167969 18.72351563 -5.1875 17.75 C-4.91357422 16.82058594 -4.63964844 15.89117188 -4.35742188 14.93359375 C-3.82280453 13.1207666 -3.28498439 11.30888028 -2.74365234 9.49804688 C-1.80325354 6.33909724 -0.89793632 3.17124826 0 0 Z " fill="#B3D6F4" transform="translate(800,653)"/>
<path d="M0 0 C0.66 0.33 1.32 0.66 2 1 C1.60210167 4.58108497 0.04011036 5.98712724 -2.5234375 8.36328125 C-5.61876504 11.79434537 -7.73584168 15.99298442 -10 20 C-10.66 19.67 -11.32 19.34 -12 19 C-11.38511719 18.04738281 -10.77023437 17.09476563 -10.13671875 16.11328125 C-9.32027161 14.84638052 -8.50386765 13.57945196 -7.6875 12.3125 C-7.28337891 11.68666016 -6.87925781 11.06082031 -6.46289062 10.41601562 C-4.24859361 6.97755441 -2.08075088 3.52178871 0 0 Z " fill="#B4D6F6" transform="translate(755,770)"/>
<path d="M0 0 C4.72502701 0.63242669 8.90570197 1.91813563 13.375 3.5625 C14.01566406 3.79646484 14.65632812 4.03042969 15.31640625 4.27148438 C16.8793161 4.84299619 18.43990727 5.42084229 20 6 C16.20680519 7.42244805 13.75138552 6.544228 10 5.25 C8.96875 4.90453125 7.9375 4.5590625 6.875 4.203125 C4.18588465 3.07778868 2.22437324 1.86077377 0 0 Z " fill="#B3CCE7" transform="translate(196,354)"/>
<path d="M0 0 C0.625 1.8125 0.625 1.8125 1 4 C0.01 5.485 0.01 5.485 -1 7 C-1.32712237 9.28571577 -1.4394968 11.53864768 -1.55859375 13.84375 C-2.08744049 16.42714291 -3.00390013 17.33924491 -5 19 C-3.25740319 5.18223235 -3.25740319 5.18223235 0 0 Z " fill="#B4D5F2" transform="translate(828,289)"/>
<path d="M0 0 C-1.55780332 0.67756882 -3.12150096 1.34159457 -4.6875 2 C-5.55761719 2.37125 -6.42773438 2.7425 -7.32421875 3.125 C-10.0572002 4.01870488 -12.14700934 4.16449676 -15 4 C-12.69846709 1.69846709 -11.15124095 1.2422972 -8.0625 0.3125 C-7.18722656 0.04050781 -6.31195312 -0.23148438 -5.41015625 -0.51171875 C-3 -1 -3 -1 0 0 Z " fill="#B0D1F0" transform="translate(589,903)"/>
<path d="M0 0 C0 0.33 0 0.66 0 1 C-2.07881495 1.55875662 -4.16330494 2.09643187 -6.25 2.625 C-7.99023438 3.07746094 -7.99023438 3.07746094 -9.765625 3.5390625 C-13.11615725 4.01655381 -14.26822383 3.87978657 -17 2 C-11.23918159 0.7017874 -5.91260345 -0.25706972 0 0 Z " fill="#B7D7F5" transform="translate(558,911)"/>
<path d="M0 0 C-0.33 0.66 -0.66 1.32 -1 2 C-3.50390625 2.4140625 -3.50390625 2.4140625 -6.5625 2.625 C-7.57441406 2.69976563 -8.58632813 2.77453125 -9.62890625 2.8515625 C-10.41136719 2.90054688 -11.19382812 2.94953125 -12 3 C-7.86112344 0.24074896 -4.92824278 -0.13689563 0 0 Z " fill="#B7D8F4" transform="translate(540,914)"/>
<path d="M0 0 C5.94 0 11.88 0 18 0 C18 0.33 18 0.66 18 1 C12.06 1 6.12 1 0 1 C0 0.67 0 0.34 0 0 Z " fill="#B5D6F5" transform="translate(384,922)"/>
<path d="M0 0 C0.66 0 1.32 0 2 0 C2.33 1.98 2.66 3.96 3 6 C2.01 6.33 1.02 6.66 0 7 C0 4.69 0 2.38 0 0 Z " fill="#9DA2A5" transform="translate(802,78)"/>
<path d="M0 0 C0.66 0.66 1.32 1.32 2 2 C-0.97 4.475 -0.97 4.475 -4 7 C-3.6875 4.625 -3.6875 4.625 -3 2 C-2.01 1.34 -1.02 0.68 0 0 Z " fill="#B4D5F3" transform="translate(839,257)"/>
<path d="M0 0 C1.39195915 4.17587745 -0.17676781 6.13474776 -2 10 C-3.39195915 5.82412255 -1.82323219 3.86525224 0 0 Z " fill="#B0D3F0" transform="translate(780,719)"/>
<path d="M0 0 C3.95820859 0.56545837 6.6659053 1.80902348 10 4 C9.01 4.495 9.01 4.495 8 5 C6.0546875 4.22265625 6.0546875 4.22265625 3.875 3.0625 C3.15054688 2.68222656 2.42609375 2.30195313 1.6796875 1.91015625 C1.12539063 1.60980469 0.57109375 1.30945313 0 1 C0 0.67 0 0.34 0 0 Z " fill="#B4D2F0" transform="translate(660,403)"/>
<path d="M0 0 C0 0.99 0 1.98 0 3 C-2.64 2.67 -5.28 2.34 -8 2 C-4.77208445 -0.1519437 -3.71599191 -0.20086443 0 0 Z " fill="#B8D9F6" transform="translate(260,366)"/>
<path d="M0 0 C2.97 0 5.94 0 9 0 C9 0.33 9 0.66 9 1 C4.545 1.495 4.545 1.495 0 2 C0 1.34 0 0.68 0 0 Z " fill="#B5D4F5" transform="translate(511,918)"/>
<path d="M0 0 C0.66 0.66 1.32 1.32 2 2 C1.01 3.32 0.02 4.64 -1 6 C-1.99 5.67 -2.98 5.34 -4 5 C-2.68 3.35 -1.36 1.7 0 0 Z " fill="#B5D6FA" transform="translate(741,791)"/>
<path d="M0 0 C0.99 0.33 1.98 0.66 3 1 C1.6875 2.5 1.6875 2.5 0 4 C-0.99 4 -1.98 4 -3 4 C-3 3.34 -3 2.68 -3 2 C-2.01 2 -1.02 2 0 2 C0 1.34 0 0.68 0 0 Z " fill="#B5D5F6" transform="translate(653,871)"/>
<path d="M0 0 C0 3 0 3 -1.375 4.6875 C-3 6 -3 6 -5 6 C-5 5.34 -5 4.68 -5 4 C-3.37373596 2.61767557 -1.7074998 1.28062485 0 0 Z " fill="#B4D5F5" transform="translate(684,849)"/>
<path d="M0 0 C2.35953094 2.35953094 2.49141413 3.77895617 3 7 C0 5 0 5 -0.75 2.9375 C-0.8325 2.298125 -0.915 1.65875 -1 1 C-0.67 0.67 -0.34 0.34 0 0 Z " fill="#ACBBCB" transform="translate(812,500)"/>
<path d="M0 0 C6.625 0.75 6.625 0.75 10 3 C3.375 2.25 3.375 2.25 0 0 Z " fill="#B4D2F0" transform="translate(636,395)"/>
<path d="M0 0 C2.97 0.33 5.94 0.66 9 1 C9 1.66 9 2.32 9 3 C2.25 2.25 2.25 2.25 0 0 Z " fill="#B5D4F3" transform="translate(568,378)"/>
<path d="M0 0 C2.64 0.33 5.28 0.66 8 1 C5.64561267 2.42944945 4.51967567 3.08661261 1.75 2.625 C1.1725 2.41875 0.595 2.2125 0 2 C0 1.34 0 0.68 0 0 Z " fill="#B7D7F8" transform="translate(241,366)"/>
<path d="M0 0 C2.01822917 0.06510417 4.03645833 0.13020833 6.0546875 0.1953125 C6.0546875 0.5253125 6.0546875 0.8553125 6.0546875 1.1953125 C2.7546875 1.5253125 -0.5453125 1.8553125 -3.9453125 2.1953125 C-1.9453125 0.1953125 -1.9453125 0.1953125 0 0 Z " fill="#B4D6F5" transform="translate(393.9453125,365.8046875)"/>
<path d="M0 0 C2.475 0.495 2.475 0.495 5 1 C4.01 2.485 4.01 2.485 3 4 C2.01 3.34 1.02 2.68 0 2 C0 1.34 0 0.68 0 0 Z " fill="#B6DAFB" transform="translate(347,680)"/>
<path d="M0 0 C1.5625 1.75 1.5625 1.75 3 4 C2.6875 6.25 2.6875 6.25 2 8 C0.74335022 5.09399739 0 3.20395416 0 0 Z " fill="#B1D1EE" transform="translate(788,436)"/>
<path d="M0 0 C5.75 0.75 5.75 0.75 8 3 C2.25 2.25 2.25 2.25 0 0 Z " fill="#B7D3F3" transform="translate(232,364)"/>
<path d="M0 0 C0.99 0.66 1.98 1.32 3 2 C1.35 2.66 -0.3 3.32 -2 4 C-2.33 3.34 -2.66 2.68 -3 2 C-2.01 2 -1.02 2 0 2 C0 1.34 0 0.68 0 0 Z " fill="#B4D7F4" transform="translate(660,867)"/>
<path d="M0 0 C0.33 0.66 0.66 1.32 1 2 C-0.32 2.99 -1.64 3.98 -3 5 C-3.66 4.67 -4.32 4.34 -5 4 C-3.35 2.68 -1.7 1.36 0 0 Z " fill="#B5D8F6" transform="translate(677,855)"/>
<path d="M0 0 C0.99 1.32 1.98 2.64 3 4 C2.01 4 1.02 4 0 4 C-0.66 3.01 -1.32 2.02 -2 1 C-1.34 0.67 -0.68 0.34 0 0 Z " fill="#FFFFFF" transform="translate(806,496)"/>
<path d="M0 0 C2.64 0.33 5.28 0.66 8 1 C7.67 1.66 7.34 2.32 7 3 C4.69 2.34 2.38 1.68 0 1 C0 0.67 0 0.34 0 0 Z " fill="#B3D3ED" transform="translate(610,387)"/>
<path d="M0 0 C2.97 0.33 5.94 0.66 9 1 C5.16380575 1.95904856 3.67568464 1.91892116 0 1 C0 0.67 0 0.34 0 0 Z " fill="#B5C8E1" transform="translate(252,378)"/>
<path d="M0 0 C2.97 0.495 2.97 0.495 6 1 C6 1.66 6 2.32 6 3 C3.03 2.505 3.03 2.505 0 2 C0 1.34 0 0.68 0 0 Z " fill="#B5D6F5" transform="translate(538,373)"/>
<path d="M0 0 C2.31 0 4.62 0 7 0 C5.02 0.99 5.02 0.99 3 2 C2.01 1.34 1.02 0.68 0 0 Z " fill="#B5D6F3" transform="translate(217,924)"/>
<path d="M0 0 C2.31 0 4.62 0 7 0 C7 0.33 7 0.66 7 1 C4.69 1.33 2.38 1.66 0 2 C0 1.34 0 0.68 0 0 Z " fill="#B3D2F2" transform="translate(560,909)"/>
<path d="M0 0 C-3 2 -3 2 -5.1875 1.625 C-5.785625 1.41875 -6.38375 1.2125 -7 1 C-4.53721199 -0.231394 -2.7204945 -0.07159196 0 0 Z " fill="#B1D0EF" transform="translate(574,907)"/>
<path d="M0 0 C0.33 0 0.66 0 1 0 C1 1.98 1 3.96 1 6 C0.34 6 -0.32 6 -1 6 C-0.67 4.02 -0.34 2.04 0 0 Z " fill="#B5DAF7" transform="translate(803,634)"/>
<path d="M0 0 C0.66 0 1.32 0 2 0 C1.67 1.32 1.34 2.64 1 4 C0.34 3.67 -0.32 3.34 -1 3 C-0.67 2.01 -0.34 1.02 0 0 Z " fill="#B5DCF3" transform="translate(276,571)"/>
<path d="M0 0 C1.42944945 2.35438733 2.08661261 3.48032433 1.625 6.25 C1.41875 6.8275 1.2125 7.405 1 8 C0.67 5.36 0.34 2.72 0 0 Z " fill="#ABC7DF" transform="translate(816,107)"/>
<path d="M0 0 C-2.31 0.33 -4.62 0.66 -7 1 C-3.375 -1.125 -3.375 -1.125 0 0 Z " fill="#B7CDE5" transform="translate(552,930)"/>
<path d="M0 0 C2.64 0 5.28 0 8 0 C8 0.33 8 0.66 8 1 C5.36 1 2.72 1 0 1 C0 0.67 0 0.34 0 0 Z " fill="#B6D4F3" transform="translate(288,924)"/>
<path d="M0 0 C2.64 0 5.28 0 8 0 C8 0.33 8 0.66 8 1 C5.36 1 2.72 1 0 1 C0 0.67 0 0.34 0 0 Z " fill="#B7D4F4" transform="translate(256,924)"/>
<path d="M0 0 C0.99 0.33 1.98 0.66 3 1 C1.35 1.66 -0.3 2.32 -2 3 C-2 2.34 -2 1.68 -2 1 C-1.34 0.67 -0.68 0.34 0 0 Z " fill="#B5D7F6" transform="translate(620,888)"/>
<path d="M0 0 C0.99 0.33 1.98 0.66 3 1 C1.02 1.66 -0.96 2.32 -3 3 C-2.01 2.01 -1.02 1.02 0 0 Z " fill="#B3D4F0" transform="translate(647,875)"/>
<path d="M0 0 C0.66 0.33 1.32 0.66 2 1 C0.68 2.32 -0.64 3.64 -2 5 C-1.34 3.35 -0.68 1.7 0 0 Z " fill="#B4D6F7" transform="translate(716,820)"/>
<path d="M0 0 C1.0625 1.8125 1.0625 1.8125 2 4 C1.67 4.99 1.34 5.98 1 7 C0.67 4.69 0.34 2.38 0 0 Z " fill="#B6D9F7" transform="translate(800,474)"/>
<path d="M0 0 C1.98 0.66 3.96 1.32 6 2 C5.01 2.33 4.02 2.66 3 3 C2.01 2.01 1.02 1.02 0 0 Z " fill="#B7CBE3" transform="translate(213,364)"/>
<path d="M0 0 C1.33332095 2.6666419 0.67102033 4.16680303 0 7 C-0.33 7 -0.66 7 -1 7 C-1.04254356 5.00045254 -1.04080783 2.99958364 -1 1 C-0.67 0.67 -0.34 0.34 0 0 Z " fill="#B6D6F6" transform="translate(820,316)"/>
<path d="M0 0 C0.66 0.33 1.32 0.66 2 1 C1.01 1.99 0.02 2.98 -1 4 C-1.66 3.34 -2.32 2.68 -3 2 C-2.01 2 -1.02 2 0 2 C0 1.34 0 0.68 0 0 Z " fill="#B5D6F0" transform="translate(899,226)"/>
<path d="M0 0 C2.31 0 4.62 0 7 0 C7 0.33 7 0.66 7 1 C4.69 1 2.38 1 0 1 C0 0.67 0 0.34 0 0 Z " fill="#B5D7F5" transform="translate(469,924)"/>
<path d="M0 0 C0.66 0.33 1.32 0.66 2 1 C1 2 1 2 -1.5625 2.0625 C-2.7690625 2.0315625 -2.7690625 2.0315625 -4 2 C-2.125 0.9375 -2.125 0.9375 0 0 Z " fill="#B4D2F1" transform="translate(524,916)"/>
<path d="M0 0 C0.33 0.99 0.66 1.98 1 3 C0.34 3.66 -0.32 4.32 -1 5 C-0.67 3.35 -0.34 1.7 0 0 Z " fill="#B0D2F4" transform="translate(776,729)"/>
<path d="M0 0 C0.99 0.495 0.99 0.495 2 1 C2 1.99 2 2.98 2 4 C1.34 4 0.68 4 0 4 C0 2.68 0 1.36 0 0 Z " fill="#B1D5F3" transform="translate(796,460)"/>
<path d="M0 0 C0.66 0.33 1.32 0.66 2 1 C0.35 1.66 -1.3 2.32 -3 3 C-2.01 2.01 -1.02 1.02 0 0 Z " fill="#B4D4F1" transform="translate(850,251)"/>
<path d="M0 0 C0 0.66 0 1.32 0 2 C-0.99 2.33 -1.98 2.66 -3 3 C-3.33 2.34 -3.66 1.68 -4 1 C-2 0 -2 0 0 0 Z " fill="#B4D7F2" transform="translate(884,235)"/>
<path d="M0 0 C0.99 0.33 1.98 0.66 3 1 C1.35 1.33 -0.3 1.66 -2 2 C-1.34 1.34 -0.68 0.68 0 0 Z " fill="#B4D6F4" transform="translate(600,897)"/>
<path d="M0 0 C0.99 0.33 1.98 0.66 3 1 C1.35 1.33 -0.3 1.66 -2 2 C-1.34 1.34 -0.68 0.68 0 0 Z " fill="#B3D5F0" transform="translate(631,883)"/>
<path d="M0 0 C0.66 0.66 1.32 1.32 2 2 C0.68 2.33 -0.64 2.66 -2 3 C-1.34 2.01 -0.68 1.02 0 0 Z " fill="#B3D6F6" transform="translate(668,861)"/>
<path d="M0 0 C0.66 0.66 1.32 1.32 2 2 C1.67 2.99 1.34 3.98 1 5 C0.67 3.35 0.34 1.7 0 0 Z " fill="#B3CFED" transform="translate(791,444)"/>
<path d="M0 0 C1.98 0 3.96 0 6 0 C6 0.33 6 0.66 6 1 C4.02 1 2.04 1 0 1 C0 0.67 0 0.34 0 0 Z " fill="#B9D7F8" transform="translate(274,368)"/>
<path d="M0 0 C0.33 1.32 0.66 2.64 1 4 C0.01 4.495 0.01 4.495 -1 5 C-0.67 3.35 -0.34 1.7 0 0 Z " fill="#A8B0B8" transform="translate(814,355)"/>
<path d="M0 0 C0.33 1.32 0.66 2.64 1 4 C0.34 4 -0.32 4 -1 4 C-0.67 2.68 -0.34 1.36 0 0 Z " fill="#B5D8F3" transform="translate(829,282)"/>
<path d="M0 0 C1.65 0 3.3 0 5 0 C5 0.33 5 0.66 5 1 C3.35 1 1.7 1 0 1 C0 0.67 0 0.34 0 0 Z " fill="#B5D4F0" transform="translate(371,923)"/>
<path d="M0 0 C0.99 0.33 1.98 0.66 3 1 C1.68 1.33 0.36 1.66 -1 2 C-0.67 1.34 -0.34 0.68 0 0 Z " fill="#B5D4F3" transform="translate(639,879)"/>
<path d="M0 0 C0.99 1.485 0.99 1.485 2 3 C1.01 3.495 1.01 3.495 0 4 C0 2.68 0 1.36 0 0 Z " fill="#B6DAF5" transform="translate(693,842)"/>
<path d="M0 0 C0.99 0.33 1.98 0.66 3 1 C2.01 1.33 1.02 1.66 0 2 C0 1.34 0 0.68 0 0 Z " fill="#B5D9F7" transform="translate(701,835)"/>
<path d="M0 0 C0.66 0.33 1.32 0.66 2 1 C0.68 1.33 -0.64 1.66 -2 2 C-1.34 1.34 -0.68 0.68 0 0 Z " fill="#B6D7F8" transform="translate(705,833)"/>
<path d="M0 0 C0.33 0.99 0.66 1.98 1 3 C0.01 3.495 0.01 3.495 -1 4 C-0.67 2.68 -0.34 1.36 0 0 Z " fill="#B2CEEF" transform="translate(761,760)"/>
<path d="M0 0 C0.99 1.485 0.99 1.485 2 3 C1.01 3.495 1.01 3.495 0 4 C0 2.68 0 1.36 0 0 Z " fill="#B7D8F8" transform="translate(804,629)"/>
<path d="M0 0 C0.66 0 1.32 0 2 0 C1.67 0.99 1.34 1.98 1 3 C0.67 2.01 0.34 1.02 0 0 Z " fill="#B6DBF6" transform="translate(802,483)"/>
<path d="M0 0 C0.66 1.32 1.32 2.64 2 4 C1.34 4 0.68 4 0 4 C0 2.68 0 1.36 0 0 Z " fill="#B5D4EF" transform="translate(794,452)"/>
<path d="M0 0 C1.65 0 3.3 0 5 0 C5 0.33 5 0.66 5 1 C3.35 1 1.7 1 0 1 C0 0.67 0 0.34 0 0 Z " fill="#B5D7F2" transform="translate(595,384)"/>
<path d="M0 0 C1.65 0 3.3 0 5 0 C5 0.33 5 0.66 5 1 C3.35 1 1.7 1 0 1 C0 0.67 0 0.34 0 0 Z " fill="#B6C9D9" transform="translate(301,384)"/>
<path d="M0 0 C1.65 0 3.3 0 5 0 C5 0.33 5 0.66 5 1 C3.35 1 1.7 1 0 1 C0 0.67 0 0.34 0 0 Z " fill="#B4C6DE" transform="translate(271,382)"/>
<path d="M0 0 C1.65 0 3.3 0 5 0 C5 0.33 5 0.66 5 1 C3.35 1 1.7 1 0 1 C0 0.67 0 0.34 0 0 Z " fill="#B5C8DD" transform="translate(261,380)"/>
<path d="M0 0 C0.99 0.33 1.98 0.66 3 1 C2.01 1.33 1.02 1.66 0 2 C0 1.34 0 0.68 0 0 Z " fill="#B6D7F8" transform="translate(564,378)"/>
<path d="M0 0 C1.65 0 3.3 0 5 0 C5 0.33 5 0.66 5 1 C3.35 1 1.7 1 0 1 C0 0.67 0 0.34 0 0 Z " fill="#B7D0EA" transform="translate(227,363)"/>
<path d="M0 0 C1.98 0.99 1.98 0.99 4 2 C2.68 1.67 1.36 1.34 0 1 C0 0.67 0 0.34 0 0 Z " fill="#B6D2E5" transform="translate(192,352)"/>
<path d="M0 0 C4 1 4 1 4 1 Z " fill="#B4D1EF" transform="translate(378,922)"/>
<path d="M0 0 C4 1 4 1 4 1 Z " fill="#B5D3F2" transform="translate(472,920)"/>
<path d="M0 0 C4 1 4 1 4 1 Z " fill="#B6D4F3" transform="translate(578,909)"/>
<path d="M0 0 C0.99 0 1.98 0 3 0 C2.67 0.66 2.34 1.32 2 2 C1.34 1.34 0.68 0.68 0 0 Z " fill="#B6D8F4" transform="translate(593,900)"/>
<path d="M0 0 C0.66 0.33 1.32 0.66 2 1 C1.01 1 0.02 1 -1 1 C-0.67 0.67 -0.34 0.34 0 0 Z " fill="#B6D7F5" transform="translate(624,886)"/>
<path d="M0 0 C0.99 0.33 1.98 0.66 3 1 C2.01 1.33 1.02 1.66 0 2 C0 1.34 0 0.68 0 0 Z " fill="#B4D9F8" transform="translate(689,846)"/>
<path d="M0 0 C0.66 0.33 1.32 0.66 2 1 C1.01 1 0.02 1 -1 1 C-0.67 0.67 -0.34 0.34 0 0 Z " fill="#B3D4F3" transform="translate(698,838)"/>
<path d="M0 0 C0 3 0 3 0 3 Z " fill="#B4D5F8" transform="translate(724,812)"/>
<path d="M0 0 C0.99 0.495 0.99 0.495 2 1 C1.34 1.66 0.68 2.32 0 3 C0 2.01 0 1.02 0 0 Z " fill="#B4D7F1" transform="translate(763,754)"/>
<path d="M0 0 C0 3 0 3 0 3 Z " fill="#B5D8F4" transform="translate(771,739)"/>
<path d="M0 0 C4 1 4 1 4 1 Z " fill="#B5D5F0" transform="translate(338,687)"/>
<path d="M0 0 C1 4 1 4 1 4 Z " fill="#B5D6F5" transform="translate(801,648)"/>
<path d="M0 0 C4 1 4 1 4 1 Z " fill="#B6D9F6" transform="translate(284,572)"/>
<path d="M0 0 C0.99 0.495 0.99 0.495 2 1 C1.67 1.66 1.34 2.32 1 3 C0.67 2.01 0.34 1.02 0 0 Z " fill="#A8AAB5" transform="translate(815,507)"/>
<path d="M0 0 C1 4 1 4 1 4 Z " fill="#B2CADD" transform="translate(810,488)"/>
<path d="M0 0 C1 4 1 4 1 4 Z " fill="#B5CBDF" transform="translate(805,472)"/>
<path d="M0 0 C0.99 0 1.98 0 3 0 C2.67 0.66 2.34 1.32 2 2 C1.34 1.34 0.68 0.68 0 0 Z " fill="#B5D2EB" transform="translate(610,396)"/>
<path d="M0 0 C0.99 0.33 1.98 0.66 3 1 C2.01 1 1.02 1 0 1 C0 0.67 0 0.34 0 0 Z " fill="#B4D3F5" transform="translate(621,390)"/>
<path d="M0 0 C4 1 4 1 4 1 Z " fill="#B7CAD9" transform="translate(491,384)"/>
<path d="M0 0 C4 1 4 1 4 1 Z " fill="#B5D9F3" transform="translate(591,383)"/>
<path d="M0 0 C4 1 4 1 4 1 Z " fill="#B3C5D8" transform="translate(248,377)"/>
<path d="M0 0 C4 1 4 1 4 1 Z " fill="#B2C3D6" transform="translate(244,376)"/>
<path d="M0 0 C0.99 0.33 1.98 0.66 3 1 C2.01 1 1.02 1 0 1 C0 0.67 0 0.34 0 0 Z " fill="#B4D4F3" transform="translate(546,374)"/>
<path d="M0 0 C0.33 0.66 0.66 1.32 1 2 C0.01 1.67 -0.98 1.34 -2 1 C-1.34 0.67 -0.68 0.34 0 0 Z " fill="#B6D5F4" transform="translate(490,367)"/>
<path d="M0 0 C4 1 4 1 4 1 Z " fill="#B3D0EA" transform="translate(220,362)"/>
<path d="M0 0 C0.99 0.495 0.99 0.495 2 1 C1.34 1.66 0.68 2.32 0 3 C0 2.01 0 1.02 0 0 Z " fill="#B5D5F0" transform="translate(812,342)"/>
<path d="M0 0 C1 4 1 4 1 4 Z " fill="#B5CAE6" transform="translate(824,320)"/>
<path d="M0 0 C3 1 3 1 3 1 Z " fill="#B8D6F8" transform="translate(521,922)"/>
<path d="M0 0 C0.99 0.495 0.99 0.495 2 1 C1.01 1.495 1.01 1.495 0 2 C0 1.34 0 0.68 0 0 Z " fill="#B8D9FA" transform="translate(517,920)"/>
<path d="M0 0 C3 1 3 1 3 1 Z " fill="#B6D5F4" transform="translate(575,910)"/>
<path d="M0 0 C0.99 0.495 0.99 0.495 2 1 C1.01 1.495 1.01 1.495 0 2 C0 1.34 0 0.68 0 0 Z " fill="#B6D4F5" transform="translate(590,901)"/>
<path d="M0 0 C3 1 3 1 3 1 Z " fill="#B5D7F3" transform="translate(605,895)"/>
<path d="M0 0 C3 1 3 1 3 1 Z " fill="#B3D5F0" transform="translate(626,885)"/>
<path d="M0 0 C0.33 0.66 0.66 1.32 1 2 C0.34 1.67 -0.32 1.34 -1 1 C-0.67 0.67 -0.34 0.34 0 0 Z " fill="#B5D8F4" transform="translate(663,865)"/>
<path d="M0 0 C0.99 0.495 0.99 0.495 2 1 C1.01 1.495 1.01 1.495 0 2 C0 1.34 0 0.68 0 0 Z " fill="#B5D6F6" transform="translate(696,841)"/>
<path d="M0 0 C0.33 0.66 0.66 1.32 1 2 C0.34 1.67 -0.32 1.34 -1 1 C-0.67 0.67 -0.34 0.34 0 0 Z " fill="#B4D5F4" transform="translate(711,827)"/>
<path d="" fill="#B5D4F1" transform="translate(0,0)"/>
<path d="" fill="#B5D8F6" transform="translate(0,0)"/>
<path d="M0 0 C0.66 0.66 1.32 1.32 2 2 C1.34 2 0.68 2 0 2 C0 1.34 0 0.68 0 0 Z " fill="#B6D8F5" transform="translate(769,742)"/>
<path d="" fill="#B5D8F4" transform="translate(0,0)"/>
<path d="M0 0 C0.66 0.66 1.32 1.32 2 2 C1.34 2 0.68 2 0 2 C0 1.34 0 0.68 0 0 Z " fill="#B7D9F5" transform="translate(276,620)"/>
<path d="M0 0 C0.66 0 1.32 0 2 0 C1.67 0.66 1.34 1.32 1 2 C0.67 1.34 0.34 0.68 0 0 Z " fill="#B6D8FC" transform="translate(796,559)"/>
<path d="" fill="#B4CEDF" transform="translate(0,0)"/>
<path d="" fill="#B3C8DA" transform="translate(0,0)"/>
<path d="" fill="#B4C9DF" transform="translate(0,0)"/>
<path d="" fill="#B6D6EF" transform="translate(0,0)"/>
<path d="" fill="#B3D1EB" transform="translate(0,0)"/>
<path d="" fill="#B3D5EB" transform="translate(0,0)"/>
<path d="M0 0 C0.66 0.66 1.32 1.32 2 2 C1.34 2 0.68 2 0 2 C0 1.34 0 0.68 0 0 Z " fill="#B5D3EB" transform="translate(685,412)"/>
<path d="" fill="#B3D0EC" transform="translate(0,0)"/>
<path d="M0 0 C3 1 3 1 3 1 Z " fill="#B6D6F2" transform="translate(653,400)"/>
<path d="M0 0 C3 1 3 1 3 1 Z " fill="#B6D7F5" transform="translate(600,385)"/>
<path d="M0 0 C0.99 0.495 0.99 0.495 2 1 C1.01 1.495 1.01 1.495 0 2 C0 1.34 0 0.68 0 0 Z " fill="#B6D8F3" transform="translate(589,382)"/>
<path d="M0 0 C3 1 3 1 3 1 Z " fill="#B4CAE1" transform="translate(291,383)"/>
<path d="M0 0 C3 1 3 1 3 1 Z " fill="#B2C4DA" transform="translate(266,381)"/>
<path d="M0 0 C3 1 3 1 3 1 Z " fill="#B6C8DC" transform="translate(241,375)"/>
<path d="M0 0 C3 1 3 1 3 1 Z " fill="#B7D5F8" transform="translate(364,368)"/>
<path d="M0 0 C3 1 3 1 3 1 Z " fill="#B7D4F2" transform="translate(323,368)"/>
<path d="" fill="#B4C1D0" transform="translate(0,0)"/>
<path d="" fill="#B5C6E0" transform="translate(0,0)"/>
<path d="" fill="#B3C4DE" transform="translate(0,0)"/>
<path d="" fill="#B5D4F2" transform="translate(0,0)"/>
<path d="M0 0 C0.99 0.495 0.99 0.495 2 1 C1.01 1.495 1.01 1.495 0 2 C0 1.34 0 0.68 0 0 Z " fill="#B6D4F1" transform="translate(841,256)"/>
<path d="M0 0 C0.66 0.66 1.32 1.32 2 2 C1.34 2 0.68 2 0 2 C0 1.34 0 0.68 0 0 Z " fill="#B6D6F4" transform="translate(892,230)"/>
<path d="M0 0 C3 1 3 1 3 1 Z " fill="#B3BEC4" transform="translate(912,227)"/>
<path d="" fill="#B4CBDF" transform="translate(0,0)"/>
<path d="" fill="#AFC6D8" transform="translate(0,0)"/>
<path d="" fill="#AAC2D5" transform="translate(0,0)"/>
<path d="M0 0 C2 1 2 1 2 1 Z " fill="#B8D4F2" transform="translate(507,927)"/>
<path d="M0 0 C2 1 2 1 2 1 Z " fill="#B9D7F6" transform="translate(512,922)"/>
<path d="M0 0 C2 1 2 1 2 1 Z " fill="#B9D8F4" transform="translate(505,920)"/>
<path d="M0 0 C2 1 2 1 2 1 Z " fill="#B9D8F6" transform="translate(525,918)"/>
<path d="M0 0 C2 1 2 1 2 1 Z " fill="#B2D5F1" transform="translate(596,899)"/>
<path d="M0 0 C2 1 2 1 2 1 Z " fill="#B4D5F4" transform="translate(603,896)"/>
<path d="M0 0 C2 1 2 1 2 1 Z " fill="#B4D6F6" transform="translate(634,882)"/>
<path d="M0 0 C2 1 2 1 2 1 Z " fill="#B5D3F4" transform="translate(636,881)"/>
<path d="M0 0 C2 1 2 1 2 1 Z " fill="#AFD1ED" transform="translate(642,878)"/>
<path d="M0 0 C2 1 2 1 2 1 Z " fill="#B4D6F3" transform="translate(664,864)"/>
<path d="" fill="#B4D7F3" transform="translate(0,0)"/>
<path d="M0 0 C2 1 2 1 2 1 Z " fill="#B6D7F9" transform="translate(677,859)"/>
<path d="" fill="#B6D5FA" transform="translate(0,0)"/>
<path d="" fill="#B7D6FA" transform="translate(0,0)"/>
<path d="M0 0 C2 1 2 1 2 1 Z " fill="#B5D3F6" transform="translate(721,815)"/>
<path d="" fill="#B7DDF9" transform="translate(0,0)"/>
<path d="" fill="#B6D5F5" transform="translate(0,0)"/>
<path d="M0 0 C2 1 2 1 2 1 Z " fill="#B7D6F3" transform="translate(276,766)"/>
<path d="" fill="#B3CEEC" transform="translate(0,0)"/>
<path d="" fill="#B6D8F4" transform="translate(0,0)"/>
<path d="" fill="#B7D8F6" transform="translate(0,0)"/>
<path d="" fill="#B4D7F7" transform="translate(0,0)"/>
<path d="" fill="#B6D7F6" transform="translate(0,0)"/>
<path d="" fill="#B7D8F7" transform="translate(0,0)"/>
<path d="M0 0 C2 1 2 1 2 1 Z " fill="#B7D5F7" transform="translate(790,688)"/>
<path d="" fill="#B3D7EF" transform="translate(0,0)"/>
<path d="" fill="#B7E4F9" transform="translate(0,0)"/>
<path d="M0 0 C2 1 2 1 2 1 Z " fill="#B7D8F6" transform="translate(790,544)"/>
<path d="" fill="#B7D9F4" transform="translate(0,0)"/>
<path d="" fill="#B3C9DD" transform="translate(0,0)"/>
<path d="" fill="#B4C9D7" transform="translate(0,0)"/>
<path d="" fill="#B5D6F5" transform="translate(0,0)"/>
<path d="" fill="#B6D5F1" transform="translate(0,0)"/>
<path d="" fill="#B6D5F0" transform="translate(0,0)"/>
<path d="" fill="#B7D6F5" transform="translate(0,0)"/>
<path d="" fill="#B6D1EF" transform="translate(0,0)"/>
<path d="" fill="#B5D8EE" transform="translate(0,0)"/>
<path d="" fill="#B1D5EB" transform="translate(0,0)"/>
<path d="" fill="#B5D3EF" transform="translate(0,0)"/>
<path d="" fill="#B4D4EB" transform="translate(0,0)"/>
<path d="M0 0 C2 1 2 1 2 1 Z " fill="#B6CFE7" transform="translate(680,416)"/>
<path d="" fill="#B3D1EC" transform="translate(0,0)"/>
<path d="M0 0 C2 1 2 1 2 1 Z " fill="#B5CFEA" transform="translate(682,411)"/>
<path d="M0 0 C2 1 2 1 2 1 Z " fill="#B3CFE5" transform="translate(680,410)"/>
<path d="M0 0 C2 1 2 1 2 1 Z " fill="#B4D5F3" transform="translate(658,402)"/>
<path d="M0 0 C2 1 2 1 2 1 Z " fill="#B2D5F1" transform="translate(656,401)"/>
<path d="M0 0 C2 1 2 1 2 1 Z " fill="#B6D7F3" transform="translate(627,398)"/>
<path d="M0 0 C2 1 2 1 2 1 Z " fill="#B7D3F0" transform="translate(634,394)"/>
<path d="M0 0 C2 1 2 1 2 1 Z " fill="#B3C9DF" transform="translate(592,394)"/>
<path d="M0 0 C2 1 2 1 2 1 Z " fill="#B7CCDF" transform="translate(586,393)"/>
<path d="M0 0 C2 1 2 1 2 1 Z " fill="#B4D2F4" transform="translate(618,390)"/>
<path d="M0 0 C2 1 2 1 2 1 Z " fill="#B6D8F3" transform="translate(586,382)"/>
<path d="M0 0 C2 1 2 1 2 1 Z " fill="#B7C9D8" transform="translate(238,374)"/>
<path d="M0 0 C2 1 2 1 2 1 Z " fill="#B6D8F4" transform="translate(528,371)"/>
<path d="M0 0 C2 1 2 1 2 1 Z " fill="#B7D7F4" transform="translate(512,370)"/>
<path d="M0 0 C2 1 2 1 2 1 Z " fill="#B6D5F2" transform="translate(478,368)"/>
<path d="M0 0 C2 1 2 1 2 1 Z " fill="#B7D4F6" transform="translate(384,368)"/>
<path d="M0 0 C2 1 2 1 2 1 Z " fill="#B7D4F5" transform="translate(356,368)"/>
<path d="M0 0 C2 1 2 1 2 1 Z " fill="#B7D4F2" transform="translate(338,368)"/>
<path d="" fill="#B5C1D9" transform="translate(0,0)"/>
<path d="" fill="#B2C5DD" transform="translate(0,0)"/>
<path d="" fill="#B6D5F1" transform="translate(0,0)"/>
<path d="" fill="#B7D6F4" transform="translate(0,0)"/>
<path d="" fill="#B6CDE6" transform="translate(0,0)"/>
<path d="" fill="#B4D1F5" transform="translate(0,0)"/>
<path d="M0 0 C2 1 2 1 2 1 Z " fill="#B6D5F4" transform="translate(845,254)"/>
<path d="M0 0 C2 1 2 1 2 1 Z " fill="#B6D4F2" transform="translate(860,246)"/>
<path d="M0 0 C2 1 2 1 2 1 Z " fill="#B7D7F3" transform="translate(865,244)"/>
<path d="M0 0 C2 1 2 1 2 1 Z " fill="#B3D4F2" transform="translate(873,240)"/>
<path d="M0 0 C2 1 2 1 2 1 Z " fill="#B3D1EE" transform="translate(877,238)"/>
<path d="M0 0 C2 1 2 1 2 1 Z " fill="#B5D3EC" transform="translate(901,227)"/>
<path d="" fill="#B7CBE3" transform="translate(0,0)"/>
<path d="" fill="#B6C9DD" transform="translate(0,0)"/>
<path d="" fill="#AFC4D5" transform="translate(0,0)"/>
<path d="" fill="#B3CEDF" transform="translate(0,0)"/>
<path d="" fill="#ADCADC" transform="translate(0,0)"/>
<path d="" fill="#A8BED3" transform="translate(0,0)"/>
<path d="" fill="#B0C3D1" transform="translate(0,0)"/>
<path d="" fill="#B7D6F3" transform="translate(0,0)"/>
<path d="" fill="#B7D6F3" transform="translate(0,0)"/>
<path d="" fill="#B7D6F3" transform="translate(0,0)"/>
<path d="" fill="#B7D6F3" transform="translate(0,0)"/>
<path d="" fill="#B7D4F2" transform="translate(0,0)"/>
<path d="" fill="#B9D7F9" transform="translate(0,0)"/>
<path d="" fill="#B8D5F5" transform="translate(0,0)"/>
<path d="" fill="#B4D5F4" transform="translate(0,0)"/>
<path d="" fill="#B7D5F7" transform="translate(0,0)"/>
<path d="" fill="#B7D4F2" transform="translate(0,0)"/>
<path d="" fill="#B5D3F5" transform="translate(0,0)"/>
<path d="" fill="#B7D8F7" transform="translate(0,0)"/>
<path d="" fill="#B6D8F3" transform="translate(0,0)"/>
<path d="" fill="#B5D8F6" transform="translate(0,0)"/>
<path d="" fill="#B7D3F8" transform="translate(0,0)"/>
<path d="" fill="#B5D6F5" transform="translate(0,0)"/>
<path d="" fill="#B3D4F3" transform="translate(0,0)"/>
<path d="" fill="#B7D8FB" transform="translate(0,0)"/>
<path d="" fill="#B7D5F9" transform="translate(0,0)"/>
<path d="" fill="#B7D8F7" transform="translate(0,0)"/>
<path d="" fill="#B7D8FB" transform="translate(0,0)"/>
<path d="" fill="#B7D9F4" transform="translate(0,0)"/>
<path d="" fill="#B7DAF8" transform="translate(0,0)"/>
<path d="" fill="#B1D2F3" transform="translate(0,0)"/>
<path d="" fill="#B7D6F3" transform="translate(0,0)"/>
<path d="" fill="#B3D4F3" transform="translate(0,0)"/>
<path d="" fill="#B5D7F3" transform="translate(0,0)"/>
<path d="" fill="#B7D3FA" transform="translate(0,0)"/>
<path d="" fill="#B7D3FB" transform="translate(0,0)"/>
<path d="" fill="#B7D9FE" transform="translate(0,0)"/>
<path d="" fill="#B6D9F9" transform="translate(0,0)"/>
<path d="" fill="#B7D6F5" transform="translate(0,0)"/>
<path d="" fill="#B7D9F5" transform="translate(0,0)"/>
<path d="" fill="#B6D5F2" transform="translate(0,0)"/>
<path d="" fill="#B6D7F6" transform="translate(0,0)"/>
<path d="" fill="#B7DAF0" transform="translate(0,0)"/>
<path d="" fill="#B6D7F8" transform="translate(0,0)"/>
<path d="" fill="#B3D6F4" transform="translate(0,0)"/>
<path d="" fill="#B1D4F0" transform="translate(0,0)"/>
<path d="" fill="#B2D5F1" transform="translate(0,0)"/>
<path d="" fill="#B7D8F7" transform="translate(0,0)"/>
<path d="" fill="#B6D8F4" transform="translate(0,0)"/>
<path d="" fill="#B4D7F7" transform="translate(0,0)"/>
<path d="" fill="#B7D6F5" transform="translate(0,0)"/>
<path d="" fill="#B7D6F5" transform="translate(0,0)"/>
<path d="" fill="#B6D3F3" transform="translate(0,0)"/>
<path d="" fill="#B7D6F3" transform="translate(0,0)"/>
<path d="" fill="#B7D4F2" transform="translate(0,0)"/>
<path d="" fill="#B7D4F4" transform="translate(0,0)"/>
<path d="" fill="#B6D5F2" transform="translate(0,0)"/>
<path d="" fill="#B5D7F3" transform="translate(0,0)"/>
<path d="" fill="#B7DAF8" transform="translate(0,0)"/>
<path d="" fill="#B7DAFA" transform="translate(0,0)"/>
<path d="" fill="#B6D8F4" transform="translate(0,0)"/>
<path d="" fill="#B7D8F7" transform="translate(0,0)"/>
<path d="" fill="#B6D7F8" transform="translate(0,0)"/>
<path d="" fill="#B5DAF7" transform="translate(0,0)"/>
<path d="" fill="#B7D8F7" transform="translate(0,0)"/>
<path d="" fill="#B7D4F4" transform="translate(0,0)"/>
<path d="" fill="#AEAEB6" transform="translate(0,0)"/>
<path d="" fill="#FFFFFF" transform="translate(0,0)"/>
<path d="" fill="#B6D1E6" transform="translate(0,0)"/>
<path d="" fill="#B6CBDC" transform="translate(0,0)"/>
<path d="" fill="#B2D5F1" transform="translate(0,0)"/>
<path d="" fill="#B6D8F4" transform="translate(0,0)"/>
<path d="" fill="#B7D9F4" transform="translate(0,0)"/>
<path d="" fill="#B6DAF2" transform="translate(0,0)"/>
<path d="" fill="#B5D8F4" transform="translate(0,0)"/>
<path d="" fill="#B7DCF6" transform="translate(0,0)"/>
<path d="" fill="#B5CEE4" transform="translate(0,0)"/>
<path d="" fill="#B6D1E6" transform="translate(0,0)"/>
<path d="" fill="#B6D1EC" transform="translate(0,0)"/>
<path d="" fill="#B7CFE7" transform="translate(0,0)"/>
<path d="" fill="#B6D2E8" transform="translate(0,0)"/>
<path d="" fill="#B5CEE4" transform="translate(0,0)"/>
<path d="" fill="#B1CBE4" transform="translate(0,0)"/>
<path d="" fill="#B4D0E5" transform="translate(0,0)"/>
<path d="" fill="#B7D2ED" transform="translate(0,0)"/>
<path d="" fill="#B7D0E4" transform="translate(0,0)"/>
<path d="" fill="#B6CFEE" transform="translate(0,0)"/>
<path d="" fill="#B3CFE7" transform="translate(0,0)"/>
<path d="" fill="#B7D1F4" transform="translate(0,0)"/>
<path d="" fill="#B7D5EF" transform="translate(0,0)"/>
<path d="" fill="#B6D0E7" transform="translate(0,0)"/>
<path d="" fill="#B5CFE6" transform="translate(0,0)"/>
<path d="" fill="#B4D1EF" transform="translate(0,0)"/>
<path d="" fill="#B6C8DE" transform="translate(0,0)"/>
<path d="" fill="#B7D9F2" transform="translate(0,0)"/>
<path d="" fill="#B6CCE3" transform="translate(0,0)"/>
<path d="" fill="#B7D2F0" transform="translate(0,0)"/>
<path d="" fill="#B6CEE6" transform="translate(0,0)"/>
<path d="" fill="#B7D8F7" transform="translate(0,0)"/>
<path d="" fill="#B7D8F7" transform="translate(0,0)"/>
<path d="" fill="#B2D0F2" transform="translate(0,0)"/>
<path d="" fill="#B7CCE1" transform="translate(0,0)"/>
<path d="" fill="#B6CAE3" transform="translate(0,0)"/>
<path d="" fill="#B5D7F3" transform="translate(0,0)"/>
<path d="" fill="#B7D8F7" transform="translate(0,0)"/>
<path d="" fill="#B7DAF8" transform="translate(0,0)"/>
<path d="" fill="#B7D6F3" transform="translate(0,0)"/>
<path d="" fill="#B7D8F7" transform="translate(0,0)"/>
<path d="" fill="#B5D6F7" transform="translate(0,0)"/>
<path d="" fill="#B7D6F5" transform="translate(0,0)"/>
<path d="" fill="#B8CBDC" transform="translate(0,0)"/>
<path d="" fill="#B7D6F5" transform="translate(0,0)"/>
<path d="" fill="#B7D4F2" transform="translate(0,0)"/>
<path d="" fill="#B7D4F4" transform="translate(0,0)"/>
<path d="" fill="#B8D2F3" transform="translate(0,0)"/>
<path d="" fill="#B7D6F3" transform="translate(0,0)"/>
<path d="" fill="#B7D8F7" transform="translate(0,0)"/>
<path d="" fill="#B9D6F4" transform="translate(0,0)"/>
<path d="" fill="#B7D8F7" transform="translate(0,0)"/>
<path d="" fill="#B7D8F7" transform="translate(0,0)"/>
<path d="" fill="#B7D8F7" transform="translate(0,0)"/>
<path d="" fill="#B6D7F8" transform="translate(0,0)"/>
<path d="" fill="#B8D9F8" transform="translate(0,0)"/>
<path d="" fill="#FFFFFF" transform="translate(0,0)"/>
<path d="" fill="#B9CCDD" transform="translate(0,0)"/>
<path d="" fill="#B8CFEE" transform="translate(0,0)"/>
<path d="" fill="#B8CDEA" transform="translate(0,0)"/>
<path d="" fill="#B1CCE1" transform="translate(0,0)"/>
<path d="" fill="#B4CDE3" transform="translate(0,0)"/>
<path d="" fill="#B6CAE2" transform="translate(0,0)"/>
<path d="" fill="#B5C9E2" transform="translate(0,0)"/>
<path d="" fill="#B7C8E2" transform="translate(0,0)"/>
<path d="" fill="#B5C9E2" transform="translate(0,0)"/>
<path d="" fill="#B6D5F4" transform="translate(0,0)"/>
<path d="" fill="#B6D5F4" transform="translate(0,0)"/>
<path d="" fill="#B7D7F0" transform="translate(0,0)"/>
<path d="" fill="#B6D3F3" transform="translate(0,0)"/>
<path d="" fill="#B7D5EF" transform="translate(0,0)"/>
<path d="" fill="#B6D3F1" transform="translate(0,0)"/>
<path d="" fill="#B5D7F2" transform="translate(0,0)"/>
<path d="" fill="#B7D9F5" transform="translate(0,0)"/>
<path d="" fill="#B4D3F0" transform="translate(0,0)"/>
<path d="" fill="#B6D3F3" transform="translate(0,0)"/>
<path d="" fill="#B7D9F5" transform="translate(0,0)"/>
<path d="" fill="#B5D2F2" transform="translate(0,0)"/>
<path d="" fill="#B4D2EC" transform="translate(0,0)"/>
<path d="" fill="#B4CFE0" transform="translate(0,0)"/>
<path d="" fill="#B6C6DF" transform="translate(0,0)"/>
<path d="" fill="#B7D2E7" transform="translate(0,0)"/>
<path d="" fill="#B4C7CE" transform="translate(0,0)"/>
</svg>
